<svg id="Layer_1" data-name="Layer 1" xmlns="http://www.w3.org/2000/svg" xmlns:xlink="http://www.w3.org/1999/xlink" viewBox="0 0 141.73 142.37"><defs><style>.cls-1{fill:url(#linear-gradient);}.cls-2{fill:url(#linear-gradient-2);}.cls-3{fill:url(#linear-gradient-3);}</style><linearGradient id="linear-gradient" x1="22.14" y1="112.8" x2="108.9" y2="26.04" gradientUnits="userSpaceOnUse"><stop offset="0" stop-color="#319a48"/><stop offset="1" stop-color="#349937"/></linearGradient><linearGradient id="linear-gradient-2" x1="91.19" y1="100.96" x2="121.6" y2="70.55" gradientUnits="userSpaceOnUse"><stop offset="0" stop-color="#833c8f"/><stop offset="1" stop-color="#973d8f"/></linearGradient><linearGradient id="linear-gradient-3" x1="31.17" y1="60.43" x2="65.52" y2="26.08" gradientUnits="userSpaceOnUse"><stop offset="0" stop-color="#6f3b8f"/><stop offset="1" stop-color="#973d8f"/></linearGradient></defs><title>blob-color</title><path class="cls-1" d="M113.05,36.07A14.16,14.16,0,0,0,85.67,31h0C78.92,48.41,75.48,59.67,38.4,64.67h0A28.35,28.35,0,1,0,70.27,96.54h0C75.28,59.47,86.53,56,104,49.29h0A14.17,14.17,0,0,0,113.05,36.07Z"/><circle class="cls-2" cx="106.39" cy="85.75" r="21.5"/><path class="cls-3" d="M69.89,36.25a14,14,0,1,1-14-14A14,14,0,0,1,69.89,36.25Zm-39,7a7,7,0,1,0,7,7A7,7,0,0,0,30.89,43.25Z"/></svg>